<?xml version="1.0" encoding="utf-8"?><svg xmlns="http://www.w3.org/2000/svg" xmlns:xlink="http://www.w3.org/1999/xlink"><symbol fill="none" viewBox="0 0 36 38" id="facebook" xmlns="http://www.w3.org/2000/svg"><path d="M35.5 19c0 9.757-7.84 17.66-17.5 17.66S.5 28.756.5 19C.5 9.243 8.34 1.34 18 1.34S35.5 9.244 35.5 19z" stroke="#fff"/><path d="M18.333 10.593c-4.045 0-7.333 3.317-7.333 7.398 0 3.706 2.71 6.772 6.238 7.308l.383.058v-5.83h-1.733v-1.184h1.733v-1.572c0-.967.23-1.605.61-2.005.382-.399.945-.601 1.729-.601.626 0 .87.038 1.101.067v.968h-.815c-.462 0-.842.261-1.04.608-.197.347-.258.762-.258 1.184v1.35h2.04l-.18 1.185h-1.86v5.839l.378-.051c3.579-.49 6.34-3.583 6.34-7.324 0-4.081-3.287-7.398-7.333-7.398zm0 .673c3.687 0 6.667 3.006 6.667 6.725a6.686 6.686 0 01-5.385 6.57v-4.362h1.764l.387-2.53h-2.151v-.677c0-.35.063-.663.169-.85.107-.187.21-.27.462-.27h1.482v-2.25l-.29-.04c-.198-.026-.655-.09-1.478-.09-.901 0-1.675.248-2.209.808s-.798 1.395-.798 2.47v.9h-1.732v2.53h1.732v4.338a6.684 6.684 0 01-5.286-6.547c0-3.719 2.98-6.725 6.666-6.725z" fill="#fff"/></symbol><symbol fill="none" viewBox="0 0 36 37" id="instagram" xmlns="http://www.w3.org/2000/svg"><path d="M35.5 18.16c0 9.756-7.84 17.659-17.5 17.659S.5 27.916.5 18.159C.5 8.402 8.34.5 18 .5s17.5 7.902 17.5 17.66z" stroke="#fff"/><path d="M14.679 11.693c-2.096 0-3.802 1.72-3.802 3.835v5.31c0 2.114 1.706 3.835 3.802 3.835h5.263c2.096 0 3.8-1.72 3.8-3.835v-5.31c0-2.114-1.704-3.835-3.8-3.835h-5.263zm0 .59h5.263c1.78 0 3.216 1.45 3.216 3.245v5.31c0 1.795-1.437 3.245-3.216 3.245h-5.263c-1.78 0-3.217-1.45-3.217-3.245v-5.31c0-1.795 1.437-3.245 3.217-3.245zm6.14 1.77a.587.587 0 00-.585.59c0 .326.262.59.585.59a.587.587 0 00.585-.59.587.587 0 00-.585-.59zm-3.509.885c-1.772 0-3.216 1.457-3.216 3.245s1.444 3.245 3.216 3.245c1.773 0 3.217-1.457 3.217-3.245s-1.444-3.245-3.217-3.245zm0 .59a2.64 2.64 0 012.632 2.655 2.64 2.64 0 01-2.632 2.655 2.64 2.64 0 01-2.631-2.655 2.64 2.64 0 012.631-2.655z" fill="#fff"/></symbol><symbol fill="none" viewBox="0 0 36 37" id="vk" xmlns="http://www.w3.org/2000/svg"><path d="M35.5 18.84c0 9.758-7.84 17.66-17.5 17.66S.5 28.598.5 18.84C.5 9.085 8.34 1.182 18 1.182s17.5 7.903 17.5 17.66z" stroke="#fff"/><g clip-path="url(#cclip0)"><path d="M18.775 23.545c.406 0 .572-.274.567-.616-.02-1.29.476-1.983 1.373-1.079.992 1.001 1.197 1.695 2.402 1.695h2.133c.539 0 .75-.175.75-.45 0-.58-.947-1.604-1.75-2.356-1.123-1.053-1.176-1.078-.208-2.345 1.2-1.573 2.771-3.589 1.382-3.589H22.77c-.515 0-.552.293-.735.729-.664 1.578-1.924 3.623-2.403 3.31-.5-.326-.271-1.618-.233-3.538.01-.507.007-.855-.761-1.035a5.33 5.33 0 00-1.206-.138c-1.515 0-2.56.64-1.967.752 1.048.197.947 2.483.703 3.47-.425 1.72-2.024-1.36-2.69-2.895-.16-.368-.21-.655-.783-.655h-2.17c-.328 0-.525.108-.525.347 0 .405 1.973 4.52 3.857 6.571 1.838 2.001 3.654 1.822 4.918 1.822z" fill="#fff"/></g><defs><clipPath id="cclip0"><path fill="#fff" transform="translate(10 10.77)" d="M0 0h16v16.142H0z"/></clipPath></defs></symbol></svg>