<svg width="36" height="38" viewBox="0 0 36 38" fill="none" xmlns="http://www.w3.org/2000/svg">
<path d="M35.5 19C35.5 28.7571 27.6608 36.6593 18 36.6593C8.33916 36.6593 0.5 28.7571 0.5 19C0.5 9.24287 8.33916 1.3407 18 1.3407C27.6608 1.3407 35.5 9.24287 35.5 19Z" stroke="white"/>
<path d="M18.3333 10.593C14.2878 10.593 11 13.9099 11 17.9912C11 21.6969 13.7096 24.7629 17.2383 25.2988L17.6211 25.3566V19.5269H15.888V18.3433H17.6211V16.7709C17.6211 15.8041 17.8503 15.1657 18.2318 14.7663C18.6133 14.367 19.1758 14.1647 19.9596 14.1647C20.5859 14.1647 20.8294 14.2028 21.0612 14.2317V15.1998H20.2461C19.7839 15.1998 19.4036 15.4612 19.2057 15.808C19.0091 16.1548 18.9479 16.5699 18.9479 16.9916V18.342H20.9883L20.8073 19.5269H18.9479V25.3658L19.3255 25.3146C22.9049 24.8246 25.6667 21.7324 25.6667 17.9912C25.6667 13.9099 22.3789 10.593 18.3333 10.593ZM18.3333 11.2656C22.0195 11.2656 25 14.2724 25 17.9912C25 21.2634 22.6784 23.9537 19.6146 24.5606V20.1994H21.3789L21.7656 17.6694H19.6146V16.9916C19.6146 16.6422 19.6784 16.3295 19.7839 16.1417C19.8906 15.9552 19.9935 15.8724 20.2461 15.8724H21.7279V13.6222L21.4388 13.5828C21.2396 13.5565 20.7826 13.4921 19.9596 13.4921C19.0586 13.4921 18.2852 13.7404 17.7513 14.3C17.2174 14.8596 16.9531 15.6951 16.9531 16.7709V17.6707H15.2214V20.1994H16.9531V24.5383C13.9388 23.8946 11.6667 21.228 11.6667 17.9912C11.6667 14.2724 14.6471 11.2656 18.3333 11.2656Z" fill="white"/>
</svg>
