<svg width="36" height="37" viewBox="0 0 36 37" fill="none" xmlns="http://www.w3.org/2000/svg">
<path d="M35.5 18.1593C35.5 27.9164 27.6608 35.8186 18 35.8186C8.33916 35.8186 0.5 27.9164 0.5 18.1593C0.5 8.40217 8.33916 0.5 18 0.5C27.6608 0.5 35.5 8.40217 35.5 18.1593Z" stroke="white"/>
<path d="M14.6786 11.6932C12.5827 11.6932 10.8774 13.4136 10.8774 15.528V20.8378C10.8774 22.9522 12.5827 24.6726 14.6786 24.6726H19.9418C22.0377 24.6726 23.7429 22.9522 23.7429 20.8378V15.528C23.7429 13.4136 22.0377 11.6932 19.9418 11.6932H14.6786ZM14.6786 12.2832H19.9418C21.7213 12.2832 23.1581 13.7328 23.1581 15.528V20.8378C23.1581 22.633 21.7213 24.0826 19.9418 24.0826H14.6786C12.8991 24.0826 11.4622 22.633 11.4622 20.8378V15.528C11.4622 13.7328 12.8991 12.2832 14.6786 12.2832ZM20.819 14.0531C20.4957 14.0531 20.2342 14.317 20.2342 14.6431C20.2342 14.9692 20.4957 15.2331 20.819 15.2331C21.1422 15.2331 21.4038 14.9692 21.4038 14.6431C21.4038 14.317 21.1422 14.0531 20.819 14.0531ZM17.3102 14.9381C15.5375 14.9381 14.0938 16.3946 14.0938 18.1829C14.0938 19.9713 15.5375 21.4278 17.3102 21.4278C19.0829 21.4278 20.5266 19.9713 20.5266 18.1829C20.5266 16.3946 19.0829 14.9381 17.3102 14.9381ZM17.3102 15.528C18.7665 15.528 19.9418 16.7137 19.9418 18.1829C19.9418 19.6521 18.7665 20.8378 17.3102 20.8378C15.8539 20.8378 14.6786 19.6521 14.6786 18.1829C14.6786 16.7137 15.8539 15.528 17.3102 15.528Z" fill="white"/>
</svg>
