<svg width="36" height="37" viewBox="0 0 36 37" fill="none" xmlns="http://www.w3.org/2000/svg">
<path d="M35.5 18.8407C35.5 28.5978 27.6608 36.5 18 36.5C8.33916 36.5 0.5 28.5978 0.5 18.8407C0.5 9.08357 8.33916 1.1814 18 1.1814C27.6608 1.1814 35.5 9.08357 35.5 18.8407Z" stroke="white"/>
<g clip-path="url(#clip0)">
<path d="M18.7747 23.5446C19.1807 23.5446 19.3467 23.2715 19.342 22.9292C19.3213 21.6399 19.818 20.9458 20.7147 21.8504C21.7067 22.8512 21.912 23.5446 23.1167 23.5446H25.25C25.7887 23.5446 26.0007 23.3697 26.0007 23.0953C26.0007 22.5149 25.0533 21.4906 24.2507 20.7386C23.1267 19.6861 23.074 19.6612 24.042 18.3941C25.2427 16.8209 26.8133 14.8053 25.424 14.8053H22.77C22.2553 14.8053 22.218 15.0978 22.0347 15.5336C21.3713 17.1122 20.1107 19.1568 19.632 18.844C19.1313 18.5178 19.3607 17.2258 19.3987 15.3056C19.4087 14.7985 19.406 14.4508 18.638 14.2706C18.2187 14.173 17.8107 14.1327 17.432 14.1327C15.9167 14.1327 14.8713 14.7736 15.4653 14.8853C16.5127 15.0824 16.412 17.3684 16.168 18.3557C15.7427 20.0748 14.144 16.9945 13.478 15.4603C13.3173 15.0918 13.268 14.8053 12.6947 14.8053H10.5247C10.1967 14.8053 10 14.9129 10 15.1523C10 15.5572 11.9733 19.6719 13.8573 21.7233C15.6947 23.7242 17.5107 23.5446 18.7747 23.5446Z" fill="white"/>
</g>
<defs>
<clipPath id="clip0">
<rect width="16" height="16.1416" fill="white" transform="translate(10 10.7699)"/>
</clipPath>
</defs>
</svg>
